inDegrees=yes
name=ik_lifting_orientations
DataType=double
version=3
OpenSimVersion=4.5-2024-01-10-34fd6af
endheader
time	pelvis_tilt	pelvis_list	pelvis_rotation	pelvis_tx	pelvis_ty	pelvis_tz	hip_flexion_r	hip_adduction_r	hip_rotation_r	knee_angle_r	knee_angle_r_beta	ankle_angle_r	subtalar_angle_r	mtp_angle_r	hip_flexion_l	hip_adduction_l	hip_rotation_l	knee_angle_l	knee_angle_l_beta	ankle_angle_l	subtalar_angle_l	mtp_angle_l	lumbar_extension	lumbar_bending	lumbar_rotation	arm_flex_r	arm_add_r	arm_rot_r	elbow_flex_r	pro_sup_r	wrist_flex_r	wrist_dev_r	arm_flex_l	arm_add_l	arm_rot_l	elbow_flex_l	pro_sup_l	wrist_flex_l	wrist_dev_l
0.02	0.004956057272047983	0.003712211937733548	-90.01993669286877	0	0.9399999998679526	0	45.00222817117869	-13.6216914000675	0	60.48519250672562	1.055665757944964	-6.821116208249291	0	0	45.00222817117869	-13.6216914000675	0	60.48519250672562	1.055665757944964	-6.821116208249291	0	0	0.005273671928968515	-0.001683945653163067	0.002668583050343093	-0.2367791191153222	-0.05227769797199198	0.002052094085019297	0.4902280992960907	2.727725761174148	0	0	0	-8.698402304073243	0	87.33406674963084	2.727725761174148	0	0
0.03	0.005366319326172037	-0.01534056663782556	-90.01299268734046	0	0.9399999998679526	0	45.00217855998297	-13.38156214133063	0	60.47661553449733	1.055516061539729	-6.67346226237666	0	0	45.00217855998297	-13.38156214133063	0	60.47661553449733	1.055516061539729	-6.67346226237666	0	0	-0.01652297929202761	-0.003092170971323258	-0.00163263796193812	-0.2432911845471377	-0.06282131157746534	-0.008459932607241706	0.5061463578159938	2.68453509849411	0	0	0	-8.772926234403007	0	87.37627486240277	2.68453509849411	0	0
0.04	0.001262233159500215	-0.005571089514402236	-90.01196724549118	0	0.9399999998679526	0	45.00207908853181	-12.93888064306085	0	60.45927941430093	1.05521348916278	-6.409231941152595	0	0	45.00207908853181	-12.93888064306085	0	60.45927941430093	1.05521348916278	-6.409231941152595	0	0	-0.0131386962940869	-0.00146752557550541	-0.00214005518789587	-0.2334176507379378	-0.05599361526150769	-0.006309446786184177	0.5054364071247127	2.596958868389342	0	0	0	-8.925072436430407	0	87.46185904721656	2.596958868389342	0	0
0.05	-0.003017813775005036	-0.003399424231997088	-90.01207231142492	0	0.9399999998679526	0	45.00203251676142	-12.73350428529669	0	60.45115086329611	1.05507161918433	-6.286834094703404	0	0	45.00203251676142	-12.73350428529669	0	60.45115086329611	1.05507161918433	-6.286834094703404	0	0	-0.009531889217586631	-0.0002848574208471677	9.125488320695244e-07	-0.2274087960910103	-0.03696289161279133	0.02698245524565737	0.5102317580257453	2.555871139178559	0	0	0	-8.996550979651213	0	87.50201219009769	2.555871139178559	0	0
0.06	0.002857664972277758	-0.0002806822277602316	-90.08463085097311	0	0.9399999998679526	0	45.00197166360276	-12.47563812566677	0	60.44048978522306	1.054885548270143	-6.135436027925896	0	0	45.00197166360276	-12.47563812566677	0	60.44048978522306	1.054885548270143	-6.135436027925896	0	0	0.004745698833224008	-0.005049162970503597	0.07067365957173419	-0.1985778630623422	-0.03766727190162016	0.09445158396783623	0.4683754600230923	2.501905938668843	0	0	0	-9.090725428691485	0	87.55474995397468	2.501905938668843	0	0
0.07000000000000001	0.005752873428022737	-0.002242879880727968	-90.08263916910236	0	0.9399999998679526	0	45.00190077535194	-12.21813478565737	0	60.42788523226591	1.054665557320299	-5.992340057829354	0	0	45.00190077535194	-12.21813478565737	0	60.42788523226591	1.054665557320299	-5.992340057829354	0	0	-0.006179094715916338	-0.00232562584017277	0.006372565151302569	-0.188563009994678	-0.04763978906854433	0.1890045745446958	0.4463995290702003	2.437723921304228	0	0	0	-9.204152132896027	0	87.61747244334464	2.437723921304228	0	0
0.08	0.001061788768175872	0.0007104502040782819	-90.09115587819305	0	0.9399999998679526	0	45.00186811633834	-12.10287810296669	0	60.42205826551557	1.054563857565101	-5.928800274820775	0	0	45.00186811633834	-12.10287810296669	0	60.42205826551557	1.054563857565101	-5.928800274820775	0	0	-0.00418504229932438	-0.001879398772620565	0.07285219828128249	-0.1857274694696038	-0.03937307259172823	0.1361504720618313	0.4440236669417923	2.408012250209038	0	0	0	-9.256819613651102	0	87.64650848273375	2.408012250209038	0	0
0.09	0.002814920735810835	0.003176322029918565	-90.07998845500866	0	0.9399999998679526	0	45.00182395657533	-11.94957675366146	0	60.41416791284159	1.054426144931796	-5.844868380681509	0	0	45.00182395657533	-11.94957675366146	0	60.41416791284159	1.054426144931796	-5.844868380681509	0	0	0.004903878366016779	-0.0001277600706307216	0.07225969601288179	-0.1902540206478677	-0.02968461936685538	0.1801137066681612	0.4593829311827751	2.367756294461082	0	0	0	-9.328264844938044	0	87.68584904769523	2.367756294461082	0	0
0.1	0.00612583103565067	0.002414845713306024	-90.08430195146917	0	0.9399999998679526	0	45.00179267150951	-11.84795904161273	0	60.40854053867289	1.054327928724311	-5.790497430996416	0	0	45.00179267150951	-11.84795904161273	0	60.40854053867289	1.054327928724311	-5.790497430996416	0	0	0.005689031375945941	-0.000100110085463763	0.06929297204413903	-0.1962213932036823	-0.00893608692773174	0.1802529748132092	0.4580637171645345	2.338969352209774	0	0	0	-9.379648450439518	0	87.71398144726243	2.338969352209774	0	0
0.11	0.01940093568446529	0.01059780566521209	-90.08183558932143	0	0.9399999998679526	0	45.00175028535833	-11.71337019839017	0	60.4009007377997	1.054194589044877	-5.71914478891085	0	0	45.00175028535833	-11.71337019839017	0	60.4009007377997	1.054194589044877	-5.71914478891085	0	0	0.0128206011196983	-0.00537076026183728	0.1323375294857606	-0.1875462964047312	-0.01051666730582801	0.1399584661938993	0.4577433768628624	2.299856197514357	0	0	0	-9.449584167433345	0	87.7522052862018	2.299856197514357	0	0
0.12	0.001791704370226122	-0.000278124190555366	-90.01528290185438	0	0.9399999998679526	0	45.00170687343064	-11.58313693026175	0	60.39303227898898	1.054057258531572	-5.651501645681442	0	0	45.00170687343064	-11.58313693026175	0	60.39303227898898	1.054057258531572	-5.651501645681442	0	0	-0.002801164778164218	-0.001414695030362888	0.06064327457447068	-0.1797757596553517	0.01236677839963925	0.1783756003715687	0.4511721244997092	2.259483776570259	0	0	0	-9.522115088461993	0	87.79165981539828	2.259483776570259	0	0
0.13	-0.001534782149716232	-0.000133827962835995	-90.01469939510098	0	0.9399999998679526	0	45.00154445506628	-11.15977935049041	0	60.36318089240053	1.053536253549318	-5.442336436262008	0	0	45.00154445506628	-11.15977935049041	0	60.36318089240053	1.053536253549318	-5.442336436262008	0	0	-0.001901104181288474	0.0006673044918465732	0.0598869944037397	-0.179120328298241	0.01356373781336818	0.1781940532247269	0.4511476063381148	2.105461580737913	0	0	0	-9.802146974703744	0	87.94218072641581	2.105461580737913	0	0
0.14	-0.0107603254748691	-0.005055035250737227	-90.0152463481507	0	0.9399999998679526	0	45.00150943777324	-11.07798661585625	0	60.35667489599826	1.053422702490976	-5.403502383041157	0	0	45.00150943777324	-11.07798661585625	0	60.35667489599826	1.053422702490976	-5.403502383041157	0	0	-0.01040961099261547	0.002155764369272989	0.06120203103704874	-0.172290105511963	0.04765614387307979	0.2505960044035662	0.4663923747376019	2.071749114440617	0	0	0	-9.864009023245355	0	87.97512690305265	2.071749114440617	0	0
0.15	0.0006747466192109394	0.0003053847531022521	-90.01453638531177	0	0.9399999998679526	0	45.00145402368738	-10.9631947805672	0	60.34625748794326	1.053240884420892	-5.35132583754788	0	0	45.00145402368738	-10.9631947805672	0	60.34625748794326	1.053240884420892	-5.35132583754788	0	0	-0.00328868223869698	-0.001677160133577845	0.05976119186579776	-0.1733312330906482	0.02776042804470242	0.2451375570480236	0.4584291206050111	2.017513312949698	0	0	0	-9.964538697037451	0	88.02813004736014	2.017513312949698	0	0
0.16	0.01828761312588357	-0.01215471478135629	-90.0154611441544	0	0.9399999998679526	0	45.001426470357	-10.90841307301614	0	60.34105380034537	1.053150062939064	-5.326733531259435	0	0	45.001426470357	-10.90841307301614	0	60.34105380034537	1.053150062939064	-5.326733531259435	0	0	-0.01928839544563149	-0.008128239287279472	0.05701556288264372	-0.1785258855911788	0.005138775044262227	0.2269627003405607	0.468169770593929	1.99037158624956	0	0	0	-10.015050901441	0	88.05465492523504	1.99037158624956	0	0
0.17	0.001790767346303088	-0.004654257143192002	-90.01387467041442	0	0.9399999998679526	0	45.00138836542015	-10.83458603416238	0	60.33384026278932	1.053024162957994	-5.293936356464394	0	0	45.00138836542015	-10.83458603416238	0	60.33384026278932	1.053024162957994	-5.293936356464394	0	0	-0.007590115180735632	-0.002585083260630167	0.06010562721986056	-0.1800496909284803	0.01372852080891791	0.1764608288456939	0.4513884942036182	1.952711221910419	0	0	0	-10.08527969439858	0	88.09145939960131	1.952711221910419	0	0
0.18	0.003407214621470798	-0.006106108519515528	-90.028074113275	0	0.9399999998679526	0	45.00136327216251	-10.78894490756586	0	60.32905903531167	1.052940714796223	-5.274096509541122	0	0	45.00136327216251	-10.78894490756586	0	60.32905903531167	1.052940714796223	-5.274096509541122	0	0	-0.06917587116078452	-0.003612280692632098	0.134474788877467	-0.125864961753099	0.009090412109037369	0.1238959751192135	0.4617826908762688	1.927685332880231	0	0	0	-10.132208537586	0	88.11591656455059	1.927685332880231	0	0
0.19	0.01143152350949337	-0.003198021863257651	-90.01838122035299	0	0.9399999998679526	0	45.00133943880159	-10.74715615494923	0	60.32450126271068	1.052861166657778	-5.2561698159601	0	0	45.00133943880159	-10.74715615494923	0	60.32450126271068	1.052861166657778	-5.2561698159601	0	0	-0.06713732959990626	-0.005941863930731431	0.129085448097829	-0.1253813120465916	-0.006978490023108273	0.0838890286127137	0.4564349107988727	1.903793812709778	0	0	0	-10.17715147233895	0	88.13926515428263	1.903793812709778	0	0
0.2	-9.478606497987334e-05	-0.001334478888769845	-90.01444177554431	0	0.9399999998679526	0	45.00130828647176	-10.69324495482496	0	60.31853693132217	1.052757069437369	-5.233172731090153	0	0	45.00130828647176	-10.69324495482496	0	60.31853693132217	1.052757069437369	-5.233172731090153	0	0	-0.004723180141498516	-0.001488687290101172	0.1219006712857659	-0.184694759703575	0.03062061915949375	0.04891763324285048	0.4495703598938692	1.872515290203401	0	0	0	-10.23604721692573	0	88.16983288280528	1.872515290203401	0	0
